<svg id="visual" viewBox="0 0 900 600" width="900" height="600" xmlns="http://www.w3.org/2000/svg" xmlns:xlink="http://www.w3.org/1999/xlink" version="1.1"><path d="M521 600L755 600L755 545L674 545L674 491L620 491L620 436L692 436L692 382L575 382L575 327L602 327L602 273L503 273L503 218L737 218L737 164L701 164L701 109L584 109L584 55L647 55L647 0L900 0L900 55L900 55L900 109L900 109L900 164L900 164L900 218L900 218L900 273L900 273L900 327L900 327L900 382L900 382L900 436L900 436L900 491L900 491L900 545L900 545L900 600L900 600Z" fill="#ffffff"></path><path d="M332 600L584 600L584 545L611 545L611 491L485 491L485 436L512 436L512 382L395 382L395 327L458 327L458 273L440 273L440 218L593 218L593 164L557 164L557 109L458 109L458 55L476 55L476 0L648 0L648 55L585 55L585 109L702 109L702 164L738 164L738 218L504 218L504 273L603 273L603 327L576 327L576 382L693 382L693 436L621 436L621 491L675 491L675 545L756 545L756 600L522 600Z" fill="#c8e0cd"></path><path d="M251 600L404 600L404 545L512 545L512 491L386 491L386 436L341 436L341 382L206 382L206 327L323 327L323 273L314 273L314 218L413 218L413 164L413 164L413 109L305 109L305 55L332 55L332 0L477 0L477 55L459 55L459 109L558 109L558 164L594 164L594 218L441 218L441 273L459 273L459 327L396 327L396 382L513 382L513 436L486 436L486 491L612 491L612 545L585 545L585 600L333 600Z" fill="#92c29d"></path><path d="M71 600L89 600L89 545L116 545L116 491L116 491L116 436L116 436L116 382L53 382L53 327L98 327L98 273L116 273L116 218L107 218L107 164L152 164L152 109L152 109L152 55L152 55L152 0L333 0L333 55L306 55L306 109L414 109L414 164L414 164L414 218L315 218L315 273L324 273L324 327L207 327L207 382L342 382L342 436L387 436L387 491L513 491L513 545L405 545L405 600L252 600Z" fill="#59a46f"></path><path d="M0 600L0 600L0 545L0 545L0 491L0 491L0 436L0 436L0 382L0 382L0 327L0 327L0 273L0 273L0 218L0 218L0 164L0 164L0 109L0 109L0 55L0 55L0 0L153 0L153 55L153 55L153 109L153 109L153 164L108 164L108 218L117 218L117 273L99 273L99 327L54 327L54 382L117 382L117 436L117 436L117 491L117 491L117 545L90 545L90 600L72 600Z" fill="#008542"></path></svg>