<svg id="visual" viewBox="0 0 900 600" width="900" height="600" xmlns="http://www.w3.org/2000/svg" xmlns:xlink="http://www.w3.org/1999/xlink" version="1.1"><rect x="0" y="0" width="900" height="600" fill="#fff"></rect><defs><linearGradient id="grad1_0" x1="33.3%" y1="0%" x2="100%" y2="100%"><stop offset="20%" stop-color="#008542" stop-opacity="1"></stop><stop offset="80%" stop-color="#008542" stop-opacity="1"></stop></linearGradient></defs><defs><linearGradient id="grad1_1" x1="33.3%" y1="0%" x2="100%" y2="100%"><stop offset="20%" stop-color="#008542" stop-opacity="1"></stop><stop offset="80%" stop-color="#6dae7e" stop-opacity="1"></stop></linearGradient></defs><defs><linearGradient id="grad1_2" x1="33.3%" y1="0%" x2="100%" y2="100%"><stop offset="20%" stop-color="#b6d6bd" stop-opacity="1"></stop><stop offset="80%" stop-color="#6dae7e" stop-opacity="1"></stop></linearGradient></defs><defs><linearGradient id="grad1_3" x1="33.3%" y1="0%" x2="100%" y2="100%"><stop offset="20%" stop-color="#b6d6bd" stop-opacity="1"></stop><stop offset="80%" stop-color="#ffffff" stop-opacity="1"></stop></linearGradient></defs><defs><linearGradient id="grad2_0" x1="0%" y1="0%" x2="66.7%" y2="100%"><stop offset="20%" stop-color="#008542" stop-opacity="1"></stop><stop offset="80%" stop-color="#008542" stop-opacity="1"></stop></linearGradient></defs><defs><linearGradient id="grad2_1" x1="0%" y1="0%" x2="66.7%" y2="100%"><stop offset="20%" stop-color="#6dae7e" stop-opacity="1"></stop><stop offset="80%" stop-color="#008542" stop-opacity="1"></stop></linearGradient></defs><defs><linearGradient id="grad2_2" x1="0%" y1="0%" x2="66.7%" y2="100%"><stop offset="20%" stop-color="#6dae7e" stop-opacity="1"></stop><stop offset="80%" stop-color="#b6d6bd" stop-opacity="1"></stop></linearGradient></defs><defs><linearGradient id="grad2_3" x1="0%" y1="0%" x2="66.7%" y2="100%"><stop offset="20%" stop-color="#ffffff" stop-opacity="1"></stop><stop offset="80%" stop-color="#b6d6bd" stop-opacity="1"></stop></linearGradient></defs><g transform="translate(900, 0)"><path d="M0 486.7C-51.9 449.7 -103.8 412.6 -162.6 392.6C-221.5 372.7 -287.2 370 -338.7 338.7C-390.2 307.4 -427.4 247.5 -449.7 186.3C-472 125.1 -479.4 62.5 -486.7 0L0 0Z" fill="#daebdd"></path><path d="M0 365.1C-38.9 337.2 -77.9 309.4 -122 294.5C-166.1 279.6 -215.4 277.5 -254 254C-292.6 230.5 -320.6 185.6 -337.3 139.7C-354 93.8 -359.5 46.9 -365.1 0L0 0Z" fill="#92c29d"></path><path d="M0 243.4C-26 224.8 -51.9 206.3 -81.3 196.3C-110.7 186.4 -143.6 185 -169.4 169.4C-195.1 153.7 -213.7 123.7 -224.8 93.1C-236 62.5 -239.7 31.3 -243.4 0L0 0Z" fill="#45995f"></path><path d="M0 121.7C-13 112.4 -26 103.1 -40.7 98.2C-55.4 93.2 -71.8 92.5 -84.7 84.7C-97.5 76.8 -106.9 61.9 -112.4 46.6C-118 31.3 -119.8 15.6 -121.7 0L0 0Z" fill="#008542"></path></g><g transform="translate(0, 600)"><path d="M0 -486.7C68.9 -485.8 137.8 -484.8 186.3 -449.7C234.8 -414.6 262.8 -345.2 293.4 -293.4C324.1 -241.7 357.2 -207.5 389.9 -161.5C422.5 -115.5 454.6 -57.8 486.7 0L0 0Z" fill="#daebdd"></path><path d="M0 -365.1C51.7 -364.3 103.3 -363.6 139.7 -337.3C176.1 -310.9 197.1 -258.9 220.1 -220.1C243.1 -181.3 267.9 -155.6 292.4 -121.1C316.9 -86.6 341 -43.3 365.1 0L0 0Z" fill="#92c29d"></path><path d="M0 -243.4C34.4 -242.9 68.9 -242.4 93.1 -224.8C117.4 -207.3 131.4 -172.6 146.7 -146.7C162 -120.8 178.6 -103.7 194.9 -80.7C211.3 -57.8 227.3 -28.9 243.4 0L0 0Z" fill="#45995f"></path><path d="M0 -121.7C17.2 -121.4 34.4 -121.2 46.6 -112.4C58.7 -103.6 65.7 -86.3 73.4 -73.4C81 -60.4 89.3 -51.9 97.5 -40.4C105.6 -28.9 113.7 -14.4 121.7 0L0 0Z" fill="#008542"></path></g></svg>